# xmcd
#
# Track frame offsets:
# 150
# 25093
# 48918
# 63678
# 89080
# 95503
# 117278
# 138933
# 157920
# 187438
# 198823
#
# Disc length: 2967 seconds
#
# Revision: 38
# Processed by: cddbd v1.5.2PL0 Copyright (c) Steve Scherf et al.
# Submitted via: TinyPlayer 2.8
#
DISCID=980b950b
DTITLE=The Chemical Brothers - Exit Planet Dust
DYEAR=1995
DGENRE=Electronic
TTITLE0=Leave Home
TTITLE1=In Dust We Trust
TTITLE2=Song to the Siren
TTITLE3=Three Little Birdies Down Beats
TTITLE4=Fuck Up Beats
TTITLE5=Chemical Beats
TTITLE6=Chico's Groove
TTITLE7=One Too Many Mornings
TTITLE8=Life Is Sweet
TTITLE9=Playground for a Wedgeless Firm
TTITLE10=Alive Alone
EXTD=UPC: 724384054021 - Catalogue #: XDUSTCD1, 7243 8 40540 2 1 - Label: Freestyle Dust, Virgin - ASIN: B000024I6J - Release Date: 1995 06 26 - Discogs: m23493,r38814 - MUSICBRAINZ_ALBUMID: 2cc82f9c-52f3-4d71-8033-d1b0fb2b3ed8 - Location: ;
EXTT0=
EXTT1=
EXTT2=
EXTT3=
EXTT4=
EXTT5=
EXTT6=
EXTT7=
EXTT8=
EXTT9=
EXTT10=
PLAYORDER=
